<svg id="Layer_1" data-name="Layer 1" xmlns="http://www.w3.org/2000/svg" xmlns:xlink="http://www.w3.org/1999/xlink" viewBox="0 0 440.1 401.74"><defs><style>.cls-1{fill:url(#linear-gradient);}.cls-2{fill:url(#linear-gradient-2);}.cls-3{fill:url(#linear-gradient-3);}</style><linearGradient id="linear-gradient" x1="304.09" y1="324.83" x2="304.09" y2="57" gradientTransform="matrix(1, 0, 0, -1, 0, 514)" gradientUnits="userSpaceOnUse"><stop offset="0" stop-color="#e6374d"/><stop offset="1" stop-color="#810b20"/></linearGradient><linearGradient id="linear-gradient-2" x1="206.96" y1="458.74" x2="206.96" y2="190.91" xlink:href="#linear-gradient"/><linearGradient id="linear-gradient-3" x1="355.41" y1="190.91" x2="355.41" y2="120.59" xlink:href="#linear-gradient"/></defs><path class="cls-1" d="M475.58,189.17a70.32,70.32,0,0,1-70.32,70.32H303.18A57.46,57.46,0,0,0,248,301l-25.55,88.43A93.5,93.5,0,0,1,132.6,457h0l64.64-223.76a60.92,60.92,0,0,1,58.53-44h0v-.05Z" transform="translate(-35.47 -55.26)"/><path class="cls-2" d="M378.45,55.26a70.32,70.32,0,0,1-70.32,70.32H206.05a57.46,57.46,0,0,0-55.2,41.52L125.3,255.53a93.5,93.5,0,0,1-89.83,67.56h0L100.11,99.32a60.91,60.91,0,0,1,58.53-44h0v-.05Z" transform="translate(-35.47 -55.26)"/><path class="cls-3" d="M276.23,393.41a70.32,70.32,0,0,1,70.32-70.32h88a70.32,70.32,0,0,1-70.32,70.32Z" transform="translate(-35.47 -55.26)"/></svg>