<svg id="Layer_1" data-name="Layer 1" xmlns="http://www.w3.org/2000/svg" xmlns:xlink="http://www.w3.org/1999/xlink" viewBox="0 0 125.13 19.26"><defs><style>.cls-1{fill:url(#linear-gradient);}.cls-2{fill:url(#linear-gradient-2);}.cls-3{fill:url(#linear-gradient-3);}</style><linearGradient id="linear-gradient" x1="12.21" y1="14.91" x2="12.21" y2="2.74" gradientTransform="matrix(1, 0, 0, -1, 0, 22)" gradientUnits="userSpaceOnUse"><stop offset="0" stop-color="#e6374d"/><stop offset="1" stop-color="#810b20"/></linearGradient><linearGradient id="linear-gradient-2" x1="7.79" y1="21" x2="7.79" y2="8.83" xlink:href="#linear-gradient"/><linearGradient id="linear-gradient-3" x1="14.54" y1="8.83" x2="14.54" y2="5.63" xlink:href="#linear-gradient"/></defs><path class="cls-1" d="M20,7.09a3.19,3.19,0,0,1-3.19,3.19H12.17a2.6,2.6,0,0,0-2.51,1.89l-1.16,4a4.25,4.25,0,0,1-4.09,3.07h0L7.35,9.09a2.76,2.76,0,0,1,2.66-2H20Z"/><path class="cls-2" d="M15.59,1a3.2,3.2,0,0,1-3.2,3.2H7.75A2.61,2.61,0,0,0,5.24,6.08l-1.16,4A4.24,4.24,0,0,1,0,13.17H0L2.94,3A2.77,2.77,0,0,1,5.6,1h10Z"/><path class="cls-3" d="M10.94,16.37a3.2,3.2,0,0,1,3.2-3.2h4a3.2,3.2,0,0,1-3.2,3.2Z"/><path d="M124.17,5.89a2.45,2.45,0,0,1,1,.19l-.58,2.49h-.14a3.26,3.26,0,0,0-1.92-.76,2.08,2.08,0,0,0-1.63,1v7.43c0,1.53.08,2.34,1.06,2.34v.15h-4.6v-.15c1,0,1.05-.81,1.05-2.34V9.39c0-1.53-.4-2-1.22-2.25V7l3.62-1h.09V8.5C121.87,7,122.9,5.89,124.17,5.89Z"/><path d="M117.36,15.69l.15.09a5.63,5.63,0,0,1-5,3.24c-3.35,0-5.27-2.85-5.27-6.38,0-3.87,2.54-6.75,5.82-6.75,2.66,0,4.53,1.85,4.38,4.89h-7.59c0,.24,0,.5,0,.74,0,3.52,1.22,6.11,3.88,6.11A4.42,4.42,0,0,0,117.36,15.69ZM113,6.23c-1.8,0-2.8,1.94-3,4.16h5.12C115.26,7.86,114.68,6.23,113,6.23Z"/><path d="M100.74,0V16.24c0,1.53.07,2.34,1.05,2.34v.15h-4.6v-.15c1,0,1-.81,1-2.34v-13c0-1.54-.4-2-1.22-2.25V.86L100.64,0ZM104,10l-.6.58c3.14,5.39,4.79,7.85,5.56,8v.15a17.29,17.29,0,0,1-2,.09c-1.77,0-2.47-1.34-5.58-6.8l2.32-2.32c1-1,1.53-1.73,1.53-2.4a1,1,0,0,0-.93-1V6.18h4.36v.14C107.82,6.47,106.05,7.93,104,10Z"/><path d="M91.82,19c-3.33,0-5.24-2.85-5.24-6.38,0-3.9,2.54-6.75,5.82-6.75a5.19,5.19,0,0,1,4.09,2L95.34,9.58H95.2C94.77,7.74,94,6.23,92.4,6.23c-2.13,0-3.24,2.51-3.24,5.38,0,3.41,1.3,6,3.79,6a4.37,4.37,0,0,0,3.61-2l.15.1C95.82,17.29,94.41,19,91.82,19Z"/><path d="M84.12,4.07a1.57,1.57,0,1,1,1.56-1.58A1.56,1.56,0,0,1,84.12,4.07Zm2.51,14.66H82v-.15c1,0,1.06-.81,1.06-2.34V9.39c0-1.53-.41-2-1.22-2.25V7l3.61-1h.1v10.3c0,1.53.07,2.34,1,2.34Z"/><path d="M82.18,18.73h-4.6v-.15c1,0,1.06-.81,1.06-2.34v-13c0-1.54-.33-2.47-1.14-2.76V0h3.63V16.24c0,1.53.07,2.34,1.05,2.34Z"/><path d="M66,1.29H77.61l.32,3.79h-.15c-1.31-2.8-2.22-3.4-4.83-3.4H70.41V9.94h2.18c2.22,0,2.8-.6,3.28-2.37H76v5.31h-.14c-.48-1.77-1.06-2.56-3.28-2.56H70.41v5.29c0,1.78.09,3,1.72,3v.15H66v-.15c1.63,0,1.72-1.19,1.72-3V4.41c0-1.78-.09-3-1.72-3Z"/><path d="M62,0V15.57c0,1.53.41,2.2,1.22,2.49v.14L60.12,19H60l-.46-2.21A4.65,4.65,0,0,1,55.8,19c-2.73,0-4.74-2.54-4.74-6.28,0-4.14,2.54-6.85,6-6.85a5.33,5.33,0,0,1,2.47.6V3.26c0-1.54-.41-2-1.22-2.25V.86L61.94,0ZM57,17.77a3.55,3.55,0,0,0,2.54-1.29V9.91c0-2.15-.89-3.68-2.56-3.68C54.75,6.23,53.74,9,53.74,12,53.74,15.16,54.75,17.77,57,17.77Z"/><path d="M50.14,9.63v6.61c0,1.53.08,2.34,1.06,2.34v.15H46.6v-.15c1,0,1-.81,1-2.34V10.35c0-1.68-.38-2.93-2.08-2.93a5.24,5.24,0,0,0-2.85,1v7.79c0,1.53.07,2.34,1.05,2.34v.15H39.18v-.15c1,0,1-.81,1-2.34V9.39c0-1.53-.41-2-1.22-2.25V7l3.61-1h.1v2.3C44,7,45.5,5.89,47.08,5.89,49,5.89,50.14,7.23,50.14,9.63Z"/><path d="M36.81,4.07a1.57,1.57,0,1,1,1.56-1.58A1.56,1.56,0,0,1,36.81,4.07Zm2.51,14.66H34.73v-.15c1,0,1.05-.81,1.05-2.34V9.39c0-1.53-.41-2-1.22-2.25V7l3.61-1h.1v10.3c0,1.53.07,2.34,1,2.34Z"/><path d="M23,1.29H34.62l.31,3.79h-.15c-1.31-2.8-2.22-3.4-4.83-3.4H27.41V9.94h2.18c2.22,0,2.8-.6,3.28-2.37H33v5.31h-.14c-.48-1.77-1.06-2.56-3.28-2.56H27.41v5.29c0,1.78.09,3,1.72,3v.15H23v-.15c1.63,0,1.72-1.19,1.72-3V4.41c0-1.78-.09-3-1.72-3Z"/></svg>